<mxfile host="app.diagrams.net" modified="2020-12-22T10:08:44.867Z" agent="5.0 (Macintosh; Intel Mac OS X 10_15_7) AppleWebKit/537.36 (KHTML, like Gecko) Chrome/83.0.4103.97 Safari/537.36" etag="qCR58DGPHWPJVXkRRu8m" version="14.0.4" type="github">
  <diagram id="kgpKYQtTHZ0yAKxKKP6v" name="Page-1">
    <mxGraphModel dx="4323" dy="1867" grid="1" gridSize="10" guides="1" tooltips="1" connect="1" arrows="1" fold="1" page="1" pageScale="1" pageWidth="850" pageHeight="1100" math="0" shadow="0">
      <root>
        <mxCell id="0" />
        <mxCell id="1" parent="0" />
        <mxCell id="3nuBFxr9cyL0pnOWT2aG-1" value="Client" style="shape=umlLifeline;perimeter=lifelinePerimeter;container=1;collapsible=0;recursiveResize=0;rounded=0;shadow=0;strokeWidth=1;" parent="1" vertex="1">
          <mxGeometry x="120" y="80" width="100" height="300" as="geometry" />
        </mxCell>
        <mxCell id="3nuBFxr9cyL0pnOWT2aG-2" value="" style="points=[];perimeter=orthogonalPerimeter;rounded=0;shadow=0;strokeWidth=1;" parent="3nuBFxr9cyL0pnOWT2aG-1" vertex="1">
          <mxGeometry x="45" y="70" width="10" height="190" as="geometry" />
        </mxCell>
        <mxCell id="3nuBFxr9cyL0pnOWT2aG-5" value="Server" style="shape=umlLifeline;perimeter=lifelinePerimeter;container=1;collapsible=0;recursiveResize=0;rounded=0;shadow=0;strokeWidth=1;" parent="1" vertex="1">
          <mxGeometry x="380" y="80" width="100" height="300" as="geometry" />
        </mxCell>
        <mxCell id="pDErtW31qNbLOewcHWBB-3" value="LISTEN" style="rounded=0;whiteSpace=wrap;html=1;" vertex="1" parent="1">
          <mxGeometry x="430" y="140" width="70" height="60" as="geometry" />
        </mxCell>
        <mxCell id="pDErtW31qNbLOewcHWBB-4" value="LISTEN" style="rounded=0;whiteSpace=wrap;html=1;" vertex="1" parent="1">
          <mxGeometry x="100" y="140" width="70" height="30" as="geometry" />
        </mxCell>
        <mxCell id="pDErtW31qNbLOewcHWBB-6" value="" style="endArrow=classic;html=1;exitX=1;exitY=1;exitDx=0;exitDy=0;entryX=0;entryY=1;entryDx=0;entryDy=0;" edge="1" parent="1" source="pDErtW31qNbLOewcHWBB-4" target="pDErtW31qNbLOewcHWBB-3">
          <mxGeometry width="50" height="50" relative="1" as="geometry">
            <mxPoint x="340" y="250" as="sourcePoint" />
            <mxPoint x="390" y="200" as="targetPoint" />
          </mxGeometry>
        </mxCell>
        <mxCell id="pDErtW31qNbLOewcHWBB-8" value="SYN_SENT" style="rounded=0;whiteSpace=wrap;html=1;" vertex="1" parent="1">
          <mxGeometry x="100" y="170" width="70" height="60" as="geometry" />
        </mxCell>
        <mxCell id="pDErtW31qNbLOewcHWBB-9" value="SYN_RCVD" style="rounded=0;whiteSpace=wrap;html=1;" vertex="1" parent="1">
          <mxGeometry x="430" y="200" width="70" height="70" as="geometry" />
        </mxCell>
        <mxCell id="pDErtW31qNbLOewcHWBB-11" value="" style="endArrow=classic;html=1;entryX=1;entryY=1;entryDx=0;entryDy=0;" edge="1" parent="1" target="pDErtW31qNbLOewcHWBB-8">
          <mxGeometry width="50" height="50" relative="1" as="geometry">
            <mxPoint x="430" y="200" as="sourcePoint" />
            <mxPoint x="300" y="260" as="targetPoint" />
          </mxGeometry>
        </mxCell>
        <mxCell id="pDErtW31qNbLOewcHWBB-23" value="" style="endArrow=classic;html=1;fontSize=6;fontColor=#000000;exitX=0.971;exitY=0.426;exitDx=0;exitDy=0;exitPerimeter=0;entryX=0;entryY=1;entryDx=0;entryDy=0;" edge="1" parent="1" source="3nuBFxr9cyL0pnOWT2aG-2" target="pDErtW31qNbLOewcHWBB-9">
          <mxGeometry width="50" height="50" relative="1" as="geometry">
            <mxPoint x="220" y="300" as="sourcePoint" />
            <mxPoint x="426" y="266" as="targetPoint" />
          </mxGeometry>
        </mxCell>
        <mxCell id="pDErtW31qNbLOewcHWBB-25" value="" style="rounded=0;whiteSpace=wrap;html=1;" vertex="1" parent="1">
          <mxGeometry x="100" y="230" width="70" height="130" as="geometry" />
        </mxCell>
        <mxCell id="pDErtW31qNbLOewcHWBB-28" value="" style="rounded=0;whiteSpace=wrap;html=1;" vertex="1" parent="1">
          <mxGeometry x="430" y="270" width="70" height="150" as="geometry" />
        </mxCell>
        <mxCell id="pDErtW31qNbLOewcHWBB-33" value="" style="endArrow=classic;html=1;fontSize=6;fontColor=#000000;entryX=1;entryY=0;entryDx=0;entryDy=0;exitX=0;exitY=0;exitDx=0;exitDy=0;" edge="1" parent="1" source="pDErtW31qNbLOewcHWBB-28" target="pDErtW31qNbLOewcHWBB-60">
          <mxGeometry width="50" height="50" relative="1" as="geometry">
            <mxPoint x="290" y="390" as="sourcePoint" />
            <mxPoint x="340" y="340" as="targetPoint" />
          </mxGeometry>
        </mxCell>
        <mxCell id="pDErtW31qNbLOewcHWBB-36" value="Chiper Suit / TLS Version&lt;br&gt;Random_C&lt;br&gt;压缩算法..." style="text;html=1;strokeColor=#666666;fillColor=#f5f5f5;align=center;verticalAlign=middle;whiteSpace=wrap;rounded=0;fontSize=7;fontColor=#333333;" vertex="1" parent="1">
          <mxGeometry x="-90" y="195" width="180" height="62.5" as="geometry" />
        </mxCell>
        <mxCell id="pDErtW31qNbLOewcHWBB-46" value="Server Hello&lt;br&gt;Server Certificate&lt;br&gt;Server Hello Done" style="text;html=1;strokeColor=#2D7600;fillColor=#60a917;align=center;verticalAlign=middle;whiteSpace=wrap;rounded=0;fontSize=7;fontColor=#ffffff;" vertex="1" parent="1">
          <mxGeometry x="234" y="280" width="140" height="50" as="geometry" />
        </mxCell>
        <mxCell id="pDErtW31qNbLOewcHWBB-48" value="SYN" style="text;html=1;strokeColor=#C73500;fillColor=#fa6800;align=center;verticalAlign=middle;whiteSpace=wrap;rounded=0;fontSize=7;fontColor=#ffffff;" vertex="1" parent="1">
          <mxGeometry x="260" y="170" width="50" height="20" as="geometry" />
        </mxCell>
        <mxCell id="pDErtW31qNbLOewcHWBB-49" value="&lt;span style=&quot;font-size: 12px&quot;&gt;seq = x&lt;/span&gt;" style="text;html=1;align=center;verticalAlign=middle;resizable=0;points=[];autosize=1;fontSize=7;fontColor=#000000;" vertex="1" parent="1">
          <mxGeometry x="40" y="165" width="50" height="10" as="geometry" />
        </mxCell>
        <mxCell id="pDErtW31qNbLOewcHWBB-50" value="&lt;span style=&quot;font-size: 8px&quot;&gt;seq = y, ackNum = x + 1&lt;/span&gt;" style="text;html=1;align=center;verticalAlign=middle;resizable=0;points=[];autosize=1;fontSize=7;fontColor=#000000;" vertex="1" parent="1">
          <mxGeometry x="500" y="195" width="140" height="10" as="geometry" />
        </mxCell>
        <mxCell id="pDErtW31qNbLOewcHWBB-53" value="SYN + ACK&lt;br&gt;" style="text;html=1;strokeColor=#2D7600;fillColor=#60a917;align=center;verticalAlign=middle;whiteSpace=wrap;rounded=0;fontSize=7;fontColor=#ffffff;" vertex="1" parent="1">
          <mxGeometry x="249" y="205" width="110" height="20" as="geometry" />
        </mxCell>
        <mxCell id="pDErtW31qNbLOewcHWBB-56" value="Client Hello" style="text;html=1;strokeColor=#C73500;fillColor=#fa6800;align=center;verticalAlign=middle;whiteSpace=wrap;rounded=0;fontSize=7;fontColor=#ffffff;" vertex="1" parent="1">
          <mxGeometry x="260" y="240" width="110" height="20" as="geometry" />
        </mxCell>
        <mxCell id="pDErtW31qNbLOewcHWBB-58" value="" style="endArrow=none;dashed=1;html=1;fontSize=7;fontColor=#000000;" edge="1" parent="1" source="pDErtW31qNbLOewcHWBB-36">
          <mxGeometry width="50" height="50" relative="1" as="geometry">
            <mxPoint x="90" y="280" as="sourcePoint" />
            <mxPoint x="100" y="230" as="targetPoint" />
          </mxGeometry>
        </mxCell>
        <mxCell id="pDErtW31qNbLOewcHWBB-59" value="Choose TLS version / Cipher Suite&lt;br&gt;Random_S" style="text;html=1;strokeColor=#666666;fillColor=#f5f5f5;align=center;verticalAlign=middle;whiteSpace=wrap;rounded=0;fontSize=7;fontColor=#333333;" vertex="1" parent="1">
          <mxGeometry x="520" y="250" width="200" height="42.5" as="geometry" />
        </mxCell>
        <mxCell id="pDErtW31qNbLOewcHWBB-60" value="" style="rounded=0;whiteSpace=wrap;html=1;" vertex="1" parent="1">
          <mxGeometry x="100" y="360" width="70" height="270" as="geometry" />
        </mxCell>
        <mxCell id="pDErtW31qNbLOewcHWBB-61" value="" style="endArrow=classic;html=1;fontSize=7;fontColor=#000000;entryX=0;entryY=1;entryDx=0;entryDy=0;exitX=1;exitY=0;exitDx=0;exitDy=0;" edge="1" parent="1" source="pDErtW31qNbLOewcHWBB-60" target="pDErtW31qNbLOewcHWBB-28">
          <mxGeometry width="50" height="50" relative="1" as="geometry">
            <mxPoint x="170" y="350" as="sourcePoint" />
            <mxPoint x="370" y="330" as="targetPoint" />
          </mxGeometry>
        </mxCell>
        <mxCell id="pDErtW31qNbLOewcHWBB-62" value="Client Key Change&lt;br&gt;Change Chiper Spec&lt;br&gt;Encrypted Handshake Message" style="text;html=1;strokeColor=#C73500;fillColor=#fa6800;align=center;verticalAlign=middle;whiteSpace=wrap;rounded=0;fontSize=7;fontColor=#ffffff;" vertex="1" parent="1">
          <mxGeometry x="200" y="360" width="206" height="50" as="geometry" />
        </mxCell>
        <mxCell id="pDErtW31qNbLOewcHWBB-65" value="证书校验（有效期 / 吊销 / 域名匹配）&lt;br&gt;" style="text;html=1;strokeColor=#666666;fillColor=#f5f5f5;align=center;verticalAlign=middle;whiteSpace=wrap;rounded=0;fontSize=7;fontColor=#333333;" vertex="1" parent="1">
          <mxGeometry x="-160" y="330" width="240" height="40" as="geometry" />
        </mxCell>
        <mxCell id="pDErtW31qNbLOewcHWBB-70" value="离线 CRL 与在线 OCSP" style="text;html=1;align=center;verticalAlign=middle;resizable=0;points=[];autosize=1;fontSize=9;fillColor=#dae8fc;strokeColor=#6c8ebf;" vertex="1" parent="1">
          <mxGeometry x="-120" y="320" width="140" height="20" as="geometry" />
        </mxCell>
        <mxCell id="pDErtW31qNbLOewcHWBB-71" value="" style="endArrow=none;dashed=1;html=1;dashPattern=1 3;strokeWidth=2;fontSize=9;fontColor=#000000;exitX=1;exitY=1;exitDx=0;exitDy=0;entryX=0;entryY=0.5;entryDx=0;entryDy=0;" edge="1" parent="1" source="pDErtW31qNbLOewcHWBB-9" target="pDErtW31qNbLOewcHWBB-59">
          <mxGeometry width="50" height="50" relative="1" as="geometry">
            <mxPoint x="540" y="360" as="sourcePoint" />
            <mxPoint x="590" y="310" as="targetPoint" />
          </mxGeometry>
        </mxCell>
        <mxCell id="pDErtW31qNbLOewcHWBB-74" value="随机生成&lt;span style=&quot;font-size: 9px&quot;&gt;Pre-Master&lt;/span&gt;" style="text;html=1;strokeColor=#666666;fillColor=#f5f5f5;align=center;verticalAlign=middle;whiteSpace=wrap;rounded=0;fontSize=7;fontColor=#333333;" vertex="1" parent="1">
          <mxGeometry x="-160" y="380" width="240" height="40" as="geometry" />
        </mxCell>
        <mxCell id="pDErtW31qNbLOewcHWBB-79" value="服务器公钥加密" style="text;html=1;align=center;verticalAlign=middle;resizable=0;points=[];autosize=1;fontSize=9;fillColor=#f8cecc;strokeColor=#b85450;" vertex="1" parent="1">
          <mxGeometry x="-20" y="375" width="100" height="20" as="geometry" />
        </mxCell>
        <mxCell id="pDErtW31qNbLOewcHWBB-86" value="ESTABLISH" style="rounded=0;whiteSpace=wrap;html=1;" vertex="1" parent="1">
          <mxGeometry x="430" y="420" width="70" height="310" as="geometry" />
        </mxCell>
        <mxCell id="pDErtW31qNbLOewcHWBB-87" value="" style="endArrow=classic;html=1;fontSize=9;fontColor=#000000;entryX=1;entryY=1;entryDx=0;entryDy=0;" edge="1" parent="1" target="pDErtW31qNbLOewcHWBB-60">
          <mxGeometry width="50" height="50" relative="1" as="geometry">
            <mxPoint x="430" y="420" as="sourcePoint" />
            <mxPoint x="410" y="460" as="targetPoint" />
          </mxGeometry>
        </mxCell>
        <mxCell id="pDErtW31qNbLOewcHWBB-88" value="Change Chiper Spec&lt;br&gt;Encrypted Handshake Message" style="text;html=1;strokeColor=#2D7600;fillColor=#60a917;align=center;verticalAlign=middle;whiteSpace=wrap;rounded=0;fontSize=7;fontColor=#ffffff;" vertex="1" parent="1">
          <mxGeometry x="206" y="500" width="200" height="40" as="geometry" />
        </mxCell>
        <mxCell id="pDErtW31qNbLOewcHWBB-95" value="&lt;span style=&quot;font-size: 10px&quot;&gt;通知服务器后续用对称加密的enc_key进行通信&lt;/span&gt;" style="text;html=1;strokeColor=#666666;fillColor=#f5f5f5;align=center;verticalAlign=middle;whiteSpace=wrap;rounded=0;fontSize=7;fontColor=#333333;" vertex="1" parent="1">
          <mxGeometry x="-130" y="470" width="265" height="40" as="geometry" />
        </mxCell>
        <mxCell id="pDErtW31qNbLOewcHWBB-96" value="&lt;span style=&quot;font-size: 10px&quot;&gt;会话密钥：enc_key=Fuc(random_C, random_S, Pre-Master)&lt;/span&gt;" style="text;html=1;strokeColor=#666666;fillColor=#f5f5f5;align=center;verticalAlign=middle;whiteSpace=wrap;rounded=0;fontSize=7;fontColor=#333333;" vertex="1" parent="1">
          <mxGeometry x="-205" y="430" width="340" height="40" as="geometry" />
        </mxCell>
        <mxCell id="pDErtW31qNbLOewcHWBB-97" value="Client Key Change" style="text;html=1;align=center;verticalAlign=middle;resizable=0;points=[];autosize=1;fontSize=9;fillColor=#dae8fc;strokeColor=#6c8ebf;" vertex="1" parent="1">
          <mxGeometry x="-325" y="440" width="120" height="20" as="geometry" />
        </mxCell>
        <mxCell id="pDErtW31qNbLOewcHWBB-98" value="Change Chiper Spec" style="text;html=1;align=center;verticalAlign=middle;resizable=0;points=[];autosize=1;fontSize=9;fillColor=#dae8fc;strokeColor=#6c8ebf;" vertex="1" parent="1">
          <mxGeometry x="-260" y="480" width="130" height="20" as="geometry" />
        </mxCell>
        <mxCell id="pDErtW31qNbLOewcHWBB-100" value="&lt;span style=&quot;font-size: 10px&quot;&gt;结合之前所有通信参数的hash值，用enc_key加密，让服务器验证&lt;/span&gt;" style="text;html=1;strokeColor=#666666;fillColor=#f5f5f5;align=center;verticalAlign=middle;whiteSpace=wrap;rounded=0;fontSize=7;fontColor=#333333;" vertex="1" parent="1">
          <mxGeometry x="-60" y="510" width="195" height="40" as="geometry" />
        </mxCell>
        <mxCell id="pDErtW31qNbLOewcHWBB-101" value="Encrypted Handshake Message" style="text;html=1;align=center;verticalAlign=middle;resizable=0;points=[];autosize=1;fontSize=9;fillColor=#dae8fc;strokeColor=#6c8ebf;" vertex="1" parent="1">
          <mxGeometry x="-250" y="520" width="190" height="20" as="geometry" />
        </mxCell>
        <mxCell id="pDErtW31qNbLOewcHWBB-103" value="解密得&lt;span style=&quot;font-size: 9px&quot;&gt;Pre-Master&lt;br&gt;&lt;/span&gt;&lt;span style=&quot;font-size: 10px&quot;&gt;会话密钥：enc_key=Fuc(random_C, random_S, Pre-Master)&lt;/span&gt;&lt;span style=&quot;font-size: 9px&quot;&gt;&lt;br&gt;&lt;/span&gt;" style="text;html=1;strokeColor=#666666;fillColor=#f5f5f5;align=center;verticalAlign=middle;whiteSpace=wrap;rounded=0;fontSize=7;fontColor=#333333;" vertex="1" parent="1">
          <mxGeometry x="450" y="335" width="330" height="40" as="geometry" />
        </mxCell>
        <mxCell id="pDErtW31qNbLOewcHWBB-105" value="服务器私钥解密" style="text;html=1;align=center;verticalAlign=middle;resizable=0;points=[];autosize=1;fontSize=9;fillColor=#f8cecc;strokeColor=#b85450;" vertex="1" parent="1">
          <mxGeometry x="680" y="320" width="100" height="20" as="geometry" />
        </mxCell>
        <mxCell id="pDErtW31qNbLOewcHWBB-106" value="&lt;span style=&quot;font-size: 10px&quot;&gt;用enc_key解密，结合之前所有接受信息的hash值，验证&lt;/span&gt;&lt;span style=&quot;font-size: 9px&quot;&gt;&lt;br&gt;&lt;/span&gt;" style="text;html=1;strokeColor=#666666;fillColor=#f5f5f5;align=center;verticalAlign=middle;whiteSpace=wrap;rounded=0;fontSize=7;fontColor=#333333;" vertex="1" parent="1">
          <mxGeometry x="450" y="375" width="330" height="40" as="geometry" />
        </mxCell>
        <mxCell id="pDErtW31qNbLOewcHWBB-107" value="&lt;span style=&quot;font-size: 10px&quot;&gt;结合之前所有通信参数的hash值，用enc_key加密，让客户端验证&lt;/span&gt;" style="text;html=1;strokeColor=#666666;fillColor=#f5f5f5;align=center;verticalAlign=middle;whiteSpace=wrap;rounded=0;fontSize=7;fontColor=#333333;" vertex="1" parent="1">
          <mxGeometry x="470" y="415" width="195" height="40" as="geometry" />
        </mxCell>
        <mxCell id="pDErtW31qNbLOewcHWBB-108" value="Encrypted Handshake Message" style="text;html=1;align=center;verticalAlign=middle;resizable=0;points=[];autosize=1;fontSize=9;fillColor=#dae8fc;strokeColor=#6c8ebf;" vertex="1" parent="1">
          <mxGeometry x="660" y="425" width="190" height="20" as="geometry" />
        </mxCell>
        <mxCell id="pDErtW31qNbLOewcHWBB-109" value="&lt;span style=&quot;font-size: 10px&quot;&gt;用enc_key解密，结合之前所有接受信息的hash值，验证&lt;br&gt;&lt;/span&gt;&lt;span style=&quot;font-size: 9px&quot;&gt;验证通过则完成握手&lt;br&gt;&lt;/span&gt;" style="text;html=1;strokeColor=#666666;fillColor=#f5f5f5;align=center;verticalAlign=middle;whiteSpace=wrap;rounded=0;fontSize=7;fontColor=#333333;" vertex="1" parent="1">
          <mxGeometry x="-260" y="620" width="330" height="40" as="geometry" />
        </mxCell>
        <mxCell id="pDErtW31qNbLOewcHWBB-110" value="" style="endArrow=none;dashed=1;html=1;fontSize=9;fontColor=#000000;entryX=0;entryY=1;entryDx=0;entryDy=0;exitX=1;exitY=0.5;exitDx=0;exitDy=0;" edge="1" parent="1" source="pDErtW31qNbLOewcHWBB-109" target="pDErtW31qNbLOewcHWBB-60">
          <mxGeometry width="50" height="50" relative="1" as="geometry">
            <mxPoint x="70" y="680" as="sourcePoint" />
            <mxPoint x="120" y="630" as="targetPoint" />
          </mxGeometry>
        </mxCell>
        <mxCell id="pDErtW31qNbLOewcHWBB-111" value="&lt;span&gt;ESTABLISH&lt;/span&gt;" style="rounded=0;whiteSpace=wrap;html=1;" vertex="1" parent="1">
          <mxGeometry x="100" y="630" width="70" height="110" as="geometry" />
        </mxCell>
        <mxCell id="pDErtW31qNbLOewcHWBB-112" value="&lt;span style=&quot;color: rgb(64 , 64 , 64) ; font-family: , , &amp;#34;apple color emoji&amp;#34; , &amp;#34;segoe ui emoji&amp;#34; , &amp;#34;segoe ui symbol&amp;#34; , &amp;#34;segoe ui&amp;#34; , &amp;#34;pingfang sc&amp;#34; , &amp;#34;hiragino sans gb&amp;#34; , &amp;#34;microsoft yahei&amp;#34; , &amp;#34;helvetica neue&amp;#34; , &amp;#34;helvetica&amp;#34; , &amp;#34;arial&amp;#34; , sans-serif ; font-size: 16px ; background-color: rgb(255 , 255 , 255)&quot;&gt;&amp;nbsp;SSL/TLS 单向认证流程&lt;/span&gt;" style="text;html=1;align=center;verticalAlign=middle;resizable=0;points=[];autosize=1;fontSize=9;fontColor=#000000;" vertex="1" parent="1">
          <mxGeometry x="206" y="30" width="180" height="20" as="geometry" />
        </mxCell>
      </root>
    </mxGraphModel>
  </diagram>
</mxfile>
